<mxfile host="app.diagrams.net" modified="2024-06-17T21:33:59.317Z" agent="Mozilla/5.0 (Macintosh; Intel Mac OS X 10_15_7) AppleWebKit/537.36 (KHTML, like Gecko) Chrome/126.0.0.0 Safari/537.36" version="24.4.0" etag="fGxcJ1dkJ2G8MCeIHkXG" type="github">
  <diagram name="Page-1" id="Tej-QBxnLzH2uNt5mVv0">
    <mxGraphModel>
      <root>
        <mxCell id="0" />
        <mxCell id="1" parent="0" />
      </root>
    </mxGraphModel>
  </diagram>
</mxfile>
